<svg viewBox="0 1.1 143 143" xmlns="http://www.w3.org/2000/svg">
    <path d="M89 144H1.038V1.101h142.799V144H89m44.199-18.576-24.083-42.316c1.352-.605 2.209-1.012 3.083-1.375 14.768-6.138 21.539-16.831 19.943-31.503-1.541-14.17-10.679-24.1-25.944-26.185-9.497-1.298-19.265-.811-28.906-.695-2.065.025-4.737 1.388-6.066 3.008-18.069 22.021-35.955 44.193-53.863 66.345-.744.92-1.345 1.8-2.789 3.64 4.362 0 9.374-.07 12.838-.097 3.884-.03 6.315-1.294 9.082-4.63 14.144-17.053 28.47-33.956 42.827-50.83 1.191-1.399 3.062-3.067 4.665-3.119 6.312-.202 12.691-.231 18.955.476 7.018.792 11.205 5.018 12.41 11.172 2.66 13.589-3.514 21.208-17.434 21.44-4.533.076-9.068.012-14.413.012 11.017 19.758 21.446 38.5 31.961 57.193.48.855 1.716 1.788 2.627 1.815 5.562.168 11.133.084 17.309.084-.851-1.748-1.341-2.755-2.202-4.435M77.417 96.076 62.438 70.857c-3.319 3.895-6.448 7.332-9.244 11.022-.667.881-.761 2.903-.209 3.895 7.845 14.096 15.827 28.117 23.861 42.107.497.866 1.682 1.864 2.575 1.891 5.673.171 11.355.087 17.808.087-6.844-11.66-13.149-22.401-19.812-33.783M14.13 63.5v22.494c5.206-6.464 9.568-11.489 13.431-16.872 1.511-2.105 2.615-4.998 2.677-7.561.265-10.975.084-21.962.036-32.944-.008-1.74-.172-3.479-.26-5.16H14.13V63.5Z"/>
    <path fill="#fff" d="M133.385 125.761c.675 1.343 1.165 2.35 2.016 4.098-6.176 0-11.747.084-17.309-.084-.911-.027-2.147-.96-2.627-1.815-10.515-18.693-20.944-37.435-31.961-57.193 5.345 0 9.88.064 14.413-.012 13.92-.232 20.094-7.851 17.434-21.44-1.205-6.154-5.392-10.38-12.41-11.172-6.264-.707-12.643-.678-18.955-.476-1.603.052-3.474 1.72-4.665 3.119-14.357 16.874-28.683 33.777-42.827 50.83-2.767 3.336-4.642 4.608-9.039 4.665-4.294.056-8.648.065-13.01.065 1.354-1.727 2.174-2.723 2.918-3.643 17.908-22.152 35.794-44.324 53.863-66.345 1.329-1.62 4.001-2.983 6.066-3.008 9.641-.116 19.409-.603 28.906.695 15.265 2.085 24.403 12.015 25.944 26.185 1.596 14.672-5.175 25.365-19.943 31.503-.874.363-1.731.77-3.083 1.375 8.156 14.331 16.12 28.324 24.269 42.653Z"/>
    <path fill="#fff" d="M77.596 96.397c6.484 11.061 12.79 21.802 19.633 33.462-6.453 0-12.135.084-17.808-.087-.893-.027-2.078-1.025-2.575-1.89C68.812 113.89 60.83 99.87 52.985 85.773c-.552-.992-.458-3.014.21-3.895 2.795-3.69 5.924-7.127 9.243-11.022a29382.99 29382.99 0 0 1 15.158 25.54zM14.13 63V23.457h15.884c.088 1.681.252 3.42.26 5.16.048 10.982.23 21.969-.036 32.944-.062 2.563-1.166 5.456-2.677 7.561-3.863 5.383-8.225 10.408-13.431 16.872V63z"/>
</svg>
