<?xml version="1.0" encoding="utf-8"?>
<svg viewBox="0 1.1 143 143" xmlns="http://www.w3.org/2000/svg">
  <!-- <defs>
    <linearGradient id="gradient">
      <stop offset="5%" stop-color="#fc28a8" />
      <stop offset="95%" stop-color="#03edf9" />
    </linearGradient>
  </defs> -->
  <path fill="#171520" opacity="1.000000" stroke="none" d="M 133.385 125.761 C 134.06 127.104 134.55 128.111 135.401 129.859 C 129.225 129.859 123.654 129.943 118.092 129.775 C 117.181 129.748 115.945 128.815 115.465 127.96 C 104.95 109.267 94.521 90.525 83.504 70.767 C 88.849 70.767 93.384 70.831 97.917 70.755 C 111.837 70.523 118.011 62.904 115.351 49.315 C 114.146 43.161 109.959 38.935 102.941 38.143 C 96.677 37.436 90.298 37.465 83.986 37.667 C 82.383 37.719 80.512 39.387 79.321 40.786 C 64.964 57.66 50.638 74.563 36.494 91.616 C 33.727 94.952 31.852 96.224 27.455 96.281 C 23.161 96.337 18.807 96.346 14.445 96.346 C 15.799 94.619 16.619 93.623 17.363 92.703 C 35.271 70.551 53.157 48.379 71.226 26.358 C 72.555 24.738 75.227 23.375 77.292 23.35 C 86.933 23.234 96.701 22.747 106.198 24.045 C 121.463 26.13 130.601 36.06 132.142 50.23 C 133.738 64.902 126.967 75.595 112.199 81.733 C 111.325 82.096 110.468 82.503 109.116 83.108 C 117.272 97.439 125.236 111.432 133.385 125.761 Z" />
  <path fill="#171520" opacity="1.000000" stroke="none" d=" M77.596062,96.396614 C84.079895,107.458153 90.385101,118.199463 97.229431,129.859207 C90.775665,129.859207 85.094368,129.943497 79.420792,129.772034 C78.528122,129.745041 77.342911,128.747452 76.845573,127.881332 C68.812012,113.890915 60.830097,99.870186 52.984570,85.773895 C52.432789,84.782486 52.526775,82.759636 53.194378,81.878654 C55.990219,78.189186 59.119308,74.752251 62.438011,70.856934 C67.607483,79.560287 72.512459,87.818336 77.596062,96.396614 z" />
  <path fill="#171520" opacity="1.000000" stroke="none" d=" M14.129782,62.999802 C14.129782,49.568806 14.129782,36.637749 14.129782,23.457050 C19.559189,23.457050 24.486689,23.457050 30.013590,23.457050 C30.102188,25.138340 30.266041,26.877495 30.273752,28.617342 C30.322430,39.599438 30.503355,50.585720 30.238016,61.560886 C30.176039,64.124458 29.071735,67.016823 27.560989,69.122124 C23.698265,74.505035 19.336342,79.529724 14.129781,85.994324 C14.129781,77.524666 14.129781,70.512207 14.129782,62.999802 z" />
</svg>